<svg xmlns="http://www.w3.org/2000/svg" width="1280" height="500" viewBox="0 0 1280 500"><defs><clipPath id="right"><rect x="760" y="0" width="520" height="500"/></clipPath><pattern id="grid" width="40" height="40" patternUnits="userSpaceOnUse"><path d="M40 0H0v40" fill="none" stroke="#b7bf88" stroke-opacity=".08"/></pattern></defs><rect width="1280" height="500" fill="#181e19"/><g clip-path="url(#right)" opacity=".7"><g transform="translate(720 -30)"><g fill="#353b2b"><path d="M0 40l98 15 36 52-23 78-74 19L0 171zM263 0l-12 83 62 45 70-27 20-76-35-25zM440 224l87-32 58 41 55-8v119l-67 25-70-40-82 16-22-52zM91 382l101-29 43 63-9 86-71 50-65-31-58-56zM378 543l74-19 95 58 26 58H337z"/></g><g fill="#191e19"><path d="M138 0l-15 52 66 48 48 71-19 70-60 15 3 83 92 19 58-62-3-120-60-32-11-81 16-63zM491 0l-5 96 68 55 86-9V0zM0 287l63-14 55 47-21 75-70 24-27-36zM305 413l38-63 67 32 14 93-55 52-15 113h-80l8-89zM516 444l83-29 41 32v117l-79-6-55-48z"/></g><g fill="#454735"><path d="M0 538l62-12 65 53-4 61H0zM411 109l71 5 19 65-37 24-77-33zM195 454l56-31 39 25-18 54-57 13z"/></g></g></g><rect width="1280" height="500" fill="url(#grid)"/><path d="M48 38h34m-34 0v34M1232 38h-34m34 0v34M48 462h34m-34 0v-34M1232 462h-34m34 0v-34" fill="none" stroke="#8e977a" stroke-width="2"/><text x="77" y="94" fill="#b7bf88" font-size="14" font-family="monospace" letter-spacing="3">FW / 01 — SELF-HOSTED DISCORD MUSIC</text><text x="70" y="222" fill="#e0d7ba" font-size="103" font-weight="900" font-family="Impact,Arial Narrow,Arial,sans-serif" letter-spacing="2">FIELDWAVE</text><text x="78" y="286" fill="#e0d7ba" font-size="29" font-family="Arial,sans-serif">Your squad. Your soundtrack.</text><text x="78" y="328" fill="#a4ad9a" font-size="17" font-family="Arial,sans-serif">Discord music. Private control. Ready for your home server.</text><path d="M824 130h285v250H824z" fill="none" stroke="#929c7d" stroke-width="1"/><path d="M840 255h253" stroke="#929c7d" stroke-opacity=".35"/><rect x="864" y="240.0" width="6" height="30" fill="#b7bf88"/><rect x="884" y="223.0" width="6" height="64" fill="#b7bf88"/><rect x="904" y="202.5" width="6" height="105" fill="#b7bf88"/><rect x="924" y="175.5" width="6" height="159" fill="#b7bf88"/><rect x="944" y="214.0" width="6" height="82" fill="#b7bf88"/><rect x="964" y="148.0" width="6" height="214" fill="#b7bf88"/><rect x="984" y="177.0" width="6" height="156" fill="#b7bf88"/><rect x="1004" y="207.0" width="6" height="96" fill="#b7bf88"/><rect x="1024" y="229.0" width="6" height="52" fill="#b7bf88"/><rect x="1044" y="241.0" width="6" height="28" fill="#b7bf88"/><text x="844" y="153" fill="#c3c7ad" font-size="10" font-family="monospace" letter-spacing="2">SIGNAL / ACTIVE</text><path d="M78 394h1124" stroke="#4f5945"/><text x="78" y="438" fill="#b7bf88" font-size="12" font-family="monospace" letter-spacing="2">ONE CONTAINER / YOUR OWN BOT</text><text x="906" y="438" fill="#c2bea6" font-size="12" font-family="monospace" letter-spacing="2">MADE WITH AI</text></svg>